<?xml version="1.0" encoding="UTF-8" ?>
<!DOCTYPE svg PUBLIC "-//W3C//DTD SVG 1.1//EN" "http://www.w3.org/Graphics/SVG/1.1/DTD/svg11.dtd">
<svg width="200pt" height="200pt" viewBox="0 0 200 200" version="1.1" xmlns="http://www.w3.org/2000/svg">
<g id="#ffffffff">
<path fill="#ffffff" opacity="1.00" d=" M 84.53 1.71 C 105.41 -1.57 127.31 1.93 146.03 11.79 C 166.84 22.60 183.56 41.03 192.29 62.80 C 201.02 84.29 201.81 108.87 194.59 130.90 C 187.57 152.51 172.87 171.52 153.71 183.74 C 136.99 194.58 116.93 200.08 97.03 199.44 C 74.32 198.87 51.97 190.11 34.86 175.18 C 17.92 160.58 6.15 140.10 2.16 118.08 C -2.20 94.73 2.14 69.88 14.30 49.46 C 29.09 24.17 55.53 6.09 84.53 1.71 M 85.60 18.77 C 56.69 23.59 31.46 45.19 22.06 72.93 C 15.33 92.20 16.09 113.99 24.25 132.71 C 31.88 150.45 45.96 165.32 63.27 173.87 C 78.55 181.55 96.26 184.16 113.12 181.44 C 129.90 178.81 145.76 170.75 157.84 158.82 C 169.80 147.11 178.06 131.67 181.09 115.20 C 184.22 98.43 182.08 80.68 174.81 65.23 C 166.63 47.47 151.87 32.88 134.05 24.85 C 119.01 17.98 101.87 15.90 85.60 18.77 Z" />
<path fill="#ffffff" opacity="1.00" d=" M 100.46 121.48 C 115.62 106.43 130.68 91.29 145.79 76.19 C 149.81 80.17 153.82 84.19 157.82 88.21 C 138.73 107.30 119.60 126.35 100.56 145.50 C 81.96 126.93 63.22 108.48 44.87 89.66 C 48.96 85.81 52.78 81.69 56.87 77.84 C 71.37 92.41 85.97 106.89 100.46 121.48 Z" />
</g>
</svg>
