<svg id="Réteg_2" data-name="Réteg 2" xmlns="http://www.w3.org/2000/svg" xmlns:xlink="http://www.w3.org/1999/xlink" viewBox="0 0 1920 365.82"><defs><style>.cls-1{fill:none;}.cls-2{clip-path:url(#clip-path);}.cls-3{fill:#fff;}</style><clipPath id="clip-path"><rect class="cls-1" x="-2587.69" y="-1812.71" width="7095.38" height="3991.15"/></clipPath></defs><g class="cls-2"><path class="cls-3" d="M367.18,298.26H382.9c11.29,0,16.75,4.89,16.75,15.16v2.64c0,9-3.35,11.84-6.49,13,3.07,1.26,7.58,3.73,7.58,13v5.29c0,11.61-4.84,17.34-17,17.34H367.18Zm14.43,26.16c4.31,0,5.79-1.38,5.79-6.47v-3.43c0-4.26-1.36-6.19-5.41-6.19h-2.4v16.09Zm-2,30.34h2.55c4.57,0,5.65-2.11,5.65-7v-6.1c0-5.16-1.22-7.35-6.46-7.35h-1.74Z"/><path class="cls-3" d="M452.56,348.91l-1.63,15.82h-13l9.41-66.47h19.06L476,364.73h-13.3l-1.83-15.82Zm7.2-11.28c-.94-8.5-2.27-21.44-2.89-27.81h-.5c-.23,4.64-1.81,19.59-2.69,27.81Z"/><path class="cls-3" d="M527.15,335.84v28.89H514.39V298.26H531c11.15,0,16.65,4.89,16.65,16.51v2.4c0,9.47-3.78,12.29-6.63,13.63,4.13,2,6.07,5,6.07,14.31,0,6.42-.09,16.13.46,19.62H535.15c-.82-3-.76-11.66-.76-20.14,0-7.48-.86-8.75-5.73-8.75Zm0-10.08h1.58c4.27,0,6-1.35,6-7.54V315c0-4.46-.89-6.68-5.59-6.68h-2Z"/><path class="cls-3" d="M588.39,298.26H604.1c11.3,0,16.76,4.89,16.76,15.16v2.64c0,9-3.35,11.84-6.5,13,3.07,1.26,7.58,3.73,7.58,13v5.29c0,11.61-4.84,17.34-17,17.34H588.39Zm14.42,26.16c4.32,0,5.8-1.38,5.8-6.47v-3.43c0-4.26-1.37-6.19-5.42-6.19h-2.4v16.09Zm-2,30.34h2.56c4.57,0,5.64-2.11,5.64-7v-6.1c0-5.16-1.21-7.35-6.46-7.35h-1.74Z"/><polygon class="cls-3" points="688.33 335.37 674.63 335.37 674.63 353.49 690.7 353.49 689.16 364.73 661.83 364.73 661.83 298.26 689.06 298.26 689.06 309.56 674.63 309.56 674.63 324.13 688.33 324.13 688.33 335.37"/><path class="cls-3" d="M741.89,335.84v28.89H729.12V298.26h16.59c11.14,0,16.65,4.89,16.65,16.51v2.4c0,9.47-3.79,12.29-6.64,13.63,4.13,2,6.07,5,6.07,14.31,0,6.42-.09,16.13.46,19.62H749.89c-.83-3-.77-11.66-.77-20.14,0-7.48-.86-8.75-5.73-8.75Zm0-10.08h1.58c4.27,0,6-1.35,6-7.54V315c0-4.46-.9-6.68-5.6-6.68h-2Z"/><path class="cls-3" d="M813.39,344.24v4.61c0,4.37,1.09,6.4,4,6.4s3.64-3,3.64-6.15c0-6.27-1.18-8.09-8-13.77-7.49-6.34-11.33-10.1-11.33-19.89,0-9.49,3.14-18.24,15.73-18.24,13.37,0,15.35,9.12,15.35,16.72v3.83H820.73v-4c0-4-.66-6-3.19-6-2.36,0-3.12,2-3.12,5.79,0,4,.73,6,6.23,10.27,9.77,7.68,13.28,12,13.28,22.94,0,10.41-3.55,19-16.76,19-12.68,0-16.3-7.65-16.3-17.5v-4Z"/><polygon class="cls-3" points="873.43 298.26 886.24 298.26 886.24 323.84 894.57 323.84 894.57 298.26 907.44 298.26 907.44 364.73 894.57 364.73 894.57 335.12 886.24 335.12 886.24 364.73 873.43 364.73 873.43 298.26"/><path class="cls-3" d="M982.71,316v30.84c0,13.19-6.21,18.85-17.83,18.85-11,0-16.7-5.8-16.7-18.72V315.7c0-12.84,7.06-18.44,17.29-18.44s17.24,5.51,17.24,18.78m-21.6-1.44v34c0,4.1,1.41,6.24,4.27,6.24s4.32-1.94,4.32-6.3v-34c0-4.15-1.14-6.27-4.36-6.27-2.72,0-4.23,2-4.23,6.37"/><path class="cls-3" d="M1023.42,298.26h17.05c11,0,16.51,5.84,16.51,17.61v4.06c0,11.64-4.39,18.67-17,18.67h-3.76v26.13h-12.8Zm12.8,30h2.08c4.85,0,5.88-2.72,5.88-8.25V315.4c0-4.3-1-7.07-5.27-7.07h-2.69Z"/><path class="cls-3" d="M1175.12,343v3.6c0,8.39-1.54,19.1-16.78,19.1-11.26,0-16.15-6-16.15-18.22v-32.6c0-11.56,5.77-17.65,16.42-17.65,14,0,16.32,9.24,16.32,17.94v4.18h-12.87V313.7c0-3.66-.79-5.51-3.45-5.51s-3.49,1.75-3.49,5.51v35.16c0,3.54.59,6,3.48,6s3.59-2,3.59-6.27V343Z"/><path class="cls-3" d="M1248.93,316v30.84c0,13.19-6.21,18.85-17.83,18.85-11,0-16.7-5.8-16.7-18.72V315.7c0-12.84,7-18.44,17.29-18.44s17.24,5.51,17.24,18.78m-21.6-1.44v34c0,4.1,1.41,6.24,4.27,6.24s4.32-1.94,4.32-6.3v-34c0-4.15-1.14-6.27-4.36-6.27-2.72,0-4.23,2-4.23,6.37"/><path class="cls-3" d="M1302.41,335.84v28.89h-12.76V298.26h16.58c11.15,0,16.65,4.89,16.65,16.51v2.4c0,9.47-3.78,12.29-6.63,13.63,4.13,2,6.07,5,6.07,14.31,0,6.42-.09,16.13.46,19.62h-12.37c-.82-3-.76-11.66-.76-20.14,0-7.48-.86-8.75-5.73-8.75Zm0-10.08H1304c4.27,0,6-1.35,6-7.54V315c0-4.46-.89-6.68-5.59-6.68h-2Z"/><path class="cls-3" d="M1370.1,364.73l-10-66.47h13.59l2.38,24.62c.82,8.55,1.87,18.18,2.33,26.65h.5c.43-8.46,1.51-17.56,2.23-26.56l2.07-24.71h13.36l-9.82,66.47Z"/><rect class="cls-3" x="1434.8" y="298.26" width="12.76" height="66.47"/><path class="cls-3" d="M1489.44,364.73V298.26h14.14c2.11,8.11,8.77,38.22,9.3,41.13h.31c-.71-8.84-1.16-20.93-1.16-30.21V298.26h11.87v66.47h-14.28c-1.38-6.32-8.64-40.72-9.07-42.84h-.35c.5,7.81.89,21,.89,31.49v11.35Z"/><path class="cls-3" d="M388.72,36.37v68.85c0,19.81-16.56,36.38-37.35,36.38H322.14v77c0,3.57,2.6,7.14,6.82,8.77H269.85a9.22,9.22,0,0,0,5.85-8.77V7.79c0-3.57-2.6-6.49-5.85-7.79h81.52c20.79,0,37.35,16.24,37.35,36.37m-44.82,64V40.27c0-4.87-4.55-8.44-10.71-8.44h-.33c-6.17,0-10.72,3.57-10.72,8.44v60.08c0,4.55,4.55,8.45,10.4,8.45h.32c6.17,0,11-3.9,11-8.45"/><path class="cls-3" d="M547.53,75.67,513.1,62V34.75a2.58,2.58,0,0,0-2.92-2.92H483.55c-1.95,0-3.58,1.3-3.58,2.92V72.1L519.59,87v39.29L480,111.39v81.2c0,1.62,1.63,2.92,3.58,2.92h26.63a2.58,2.58,0,0,0,2.92-2.92V165l34.43-13.31v75.67H427.69a10.33,10.33,0,0,0,5.52-8.45V8.44A9.31,9.31,0,0,0,427.69,0H547.53Z"/><path class="cls-3" d="M705.35,219.22a8.85,8.85,0,0,0,5.52,8.12H652.74a9.07,9.07,0,0,0,6.49-8.77V148.1c0-5.2-2-6.5-8.44-6.5H638.45v77c0,3.57,2.59,7.14,6.49,8.77H586.81a9,9,0,0,0,5.52-8.45V7.47c0-2.28-2.6-6.17-5.85-7.47H667c21.75,0,38.32,16.89,38.32,37.35V107.5A37.35,37.35,0,0,1,689.44,138c12.34,4.22,15.91,18.18,15.91,28.58ZM648.84,108.8c5.84,0,10.39-3.9,10.39-8.45V40.27c0-5.19-3.57-8.44-9.41-8.44h-1c-5.85,0-10.39,3.57-10.39,8.44v60.08c0,4.55,4.54,8.45,10.39,8.45"/><path class="cls-3" d="M870.65,219.22a8.85,8.85,0,0,0,5.52,8.12H817.06c3.89-1.3,6.5-4.22,6.5-8.45V40.6c0-4.55-4.55-8.77-10.4-8.77h-.32c-5.52,0-10.39,4.22-10.39,8.77V218.89c0,3.58,2.92,6.82,7.14,8.45H749.83a9.25,9.25,0,0,0,5.84-8.45V9.09A10,10,0,0,0,749.83,0h81.52c21.76,0,39.3,16.89,39.3,38Z"/><path class="cls-3" d="M1031.73,75.67,997.3,62V34.75a2.58,2.58,0,0,0-2.92-2.92H967.75c-2,0-3.58,1.3-3.58,2.92V72.1L1003.79,87v39.29l-39.62-14.94v81.2c0,1.62,1.63,2.92,3.58,2.92h26.63a2.58,2.58,0,0,0,2.92-2.92V165l34.43-13.31v75.67H911.89a10.33,10.33,0,0,0,5.52-8.45V8.44A9.31,9.31,0,0,0,911.89,0h119.84Z"/><path class="cls-3" d="M1134,131.86h59.1v.65l-1.95.64c-3.25,1.3-5.84,4.87-5.84,7.8v48.39c0,21.11-16.89,38-44.5,38h-32.15c-21.11,0-38-16.57-38-37V37c0-20.46,16.89-37,38-37h32.15c27.61,0,44.5,16.89,44.5,38V79.89L1134,60.73V40.6a9,9,0,0,0-9.1-8.77h-.32c-4.88,0-9.1,3.89-9.1,8.44v146.8c0,4.54,4.22,8.44,9.1,8.44h.32a9,9,0,0,0,9.1-8.77Z"/><path class="cls-3" d="M1222.77,0h120.49a10.45,10.45,0,0,0-5.52,7.15v.32l-58.14,188h16.24c2.28,0,3.58-1.3,3.58-2.92V165.31l35.07-13.64v75.67H1218.87c2.92-1.3,5.2-3.9,5.52-6.82v-.33l58.46-188.37h-22.08c-2.27,0-3.9,1.63-3.9,2.93v27.6L1222.77,76Z"/><path class="cls-3" d="M1494.91,8.44s.33,59.43.33,69.83c0,6.49-11.91,15.26-16.78,21.76,4.22,6.49,16.45,14,16.45,22.08v96.46c0,6.17,2.6,7.47,5.53,8.77h-58.79c3.57-1.3,6.49-4.55,6.49-8.45V127.63c0-4.87-4.54-9.09-10.39-9.09h-.32c-5.84,0-10.39,4.22-10.39,9.09v91.26c0,4.23,2.6,6.82,6.82,8.45H1374.1a10,10,0,0,0,5.84-9.1V9.09A10,10,0,0,0,1374.1,0h59.76c-4.22,1.62-6.82,4.87-6.82,8.77V89.31l21.1-6.82V8.12c0-3.9,1.31-7.15,7.8-8.12h44.5a9.31,9.31,0,0,0-5.53,8.44"/><path class="cls-3" d="M1656.53,0c-2.92,1.3-5.2,3.57-5.52,6.5v1l-34.1,115v95.81a10.32,10.32,0,0,0,6.17,9.1h-63.33c3.57-1.63,6.5-5.2,6.5-9.1V122.43l-34.43-115v-1c-.33-2.93-2.59-5.2-5.52-6.5h55.53c-3.57,1-6.17,4.54-6.81,8.12l16.56,52.94,16.24-52.94c-.65-3.9-3.25-7.15-6.5-8.12Z"/><path class="cls-3" d="M185.34,0c2.93,1.3,5.85,6.82,5.85,10.39V11l-32.36,165.7a11.82,11.82,0,0,1-19.92,6.13l-23.85-23.62a8.86,8.86,0,0,1,1-13.84l14.38-9.82-82-80.24-.37-.54c-2-3-2.71-9.16-1-11.87L2.53,73.32c5.22-.42,7.32,2.08,11.87,6.45l81.28,79.54,55.78,55.21-.54,2.75c-.33,1.3-3.25,7.79-5.85,9.09l-1.94,1,4.2,1.83a197.7,197.7,0,0,1,60.07,40.72l12-7.31-18.88-18.7a27.58,27.58,0,0,1-7.73-24.48l0-.18L233.09,12c1.29-6.18,1.62-9.42,6.17-12Z"/><path class="cls-3" d="M1872.94,42.94c1.68,2.72,1,8.92-1,11.87l-.37.54-82,80.24,14.38,9.81a8.86,8.86,0,0,1,1,13.84l-23.86,23.64a11.82,11.82,0,0,1-19.91-6.12L1728.81,11v-.65c0-3.57,2.92-9.09,5.85-10.39h-53.92c4.55,2.6,4.88,5.84,6.17,12l40.28,207.21,0,.18a27.58,27.58,0,0,1-7.73,24.48l-18.88,18.7,12,7.31a197.7,197.7,0,0,1,60.07-40.72l4.2-1.83-1.94-1c-2.6-1.3-5.52-7.79-5.85-9.09l-.54-2.75,55.78-55.21,81.28-79.55c4.55-4.36,6.65-6.86,11.87-6.44Z"/></g></svg>